<svg xmlns="http://www.w3.org/2000/svg" shape-rendering="geometricPrecision" text-rendering="geometricPrecision" image-rendering="optimizeQuality" fill-rule="evenodd" clip-rule="evenodd" viewBox="0 0 512 512"><path d="M256 0c141.385 0 256 114.615 256 256S397.385 512 256 512 0 397.385 0 256 114.615 0 256 0z"/><path fill="#2DCCD3" fill-rule="nonzero" d="M344.487 161.312c11.585 11.945 26.033 19.226 40.593 22.539v-8.971c-13.681-.969-27.993-5.274-40.593-13.568zm-83.689-59.166v200.601c0 26.281-18.888 43.185-41.855 43.185-7.619 0-14.854-1.781-21.142-5.071 7.979 10.188 20.578 16.048 34.395 16.048 22.968 0 41.855-16.905 41.855-43.208V113.1h36.401a100.278 100.278 0 01-2.434-10.954h-47.22zm-29.864 116.618v-9.939c-4.599-.766-9.196-1.015-13.006-1.015-51.818 0-95.206 41.586-95.206 93.155 0 33.855 16.476 62.795 41.517 79.926-17.445-17.31-28.264-41.54-28.264-68.971 0-51.48 43.253-93.043 94.959-93.156z"/><path fill="#F1204A" fill-rule="nonzero" d="M313.36 299.433c0 64.057-49.001 98.002-95.184 98.002-19.992 0-38.564-6.041-53.937-16.545 17.266 17.131 41.022 27.499 67.19 27.499 46.184 0 95.184-33.945 95.184-98.002v-104.38c-4.597-3.11-9.015-6.739-13.253-10.976v104.402zM197.801 340.86c-5.635-7.122-8.994-16.341-8.994-27.159 0-30.361 23.734-46.409 55.38-43.073v-50.849c-4.598-.766-9.196-1.014-13.028-1.014h-.226v40.886c-31.644-3.313-55.379 12.712-55.379 43.096 0 17.761 9.084 31.239 22.247 38.113zM385.08 183.851v37.979c-21.029 0-40.931-4.012-58.467-15.823 20.421 20.421 45.192 26.8 71.721 26.8v-46.972a82.367 82.367 0 01-13.254-1.984zm-40.593-22.54c-11.202-11.517-19.745-27.385-23.215-48.211h-10.819c6.176 22.517 18.888 38.227 34.034 48.211z"/><path fill="#fff" fill-rule="nonzero" d="M218.176 397.435c46.183 0 95.184-33.944 95.184-98.002V195.031c4.238 4.237 8.655 7.866 13.253 10.976 17.536 11.811 37.438 15.823 58.468 15.823v-37.979c-14.561-3.313-29.009-10.593-40.594-22.54-15.146-9.984-27.859-25.694-34.034-48.211h-36.402v200.601c0 26.303-18.888 43.208-41.856 43.208-13.816 0-26.415-5.86-34.394-16.048-13.163-6.875-22.247-20.353-22.247-38.114 0-30.384 23.734-46.409 55.379-43.096v-40.887c-51.705.113-94.958 41.676-94.958 93.156 0 27.431 10.819 51.661 28.264 68.971 15.372 10.503 33.945 16.544 53.937 16.544z"/></svg>