<svg width="109" height="67" viewBox="0 0 109 67" fill="none" xmlns="http://www.w3.org/2000/svg">
<path d="M78.008 21.3986C78.008 29.5514 71.39 36.1606 63.2262 36.1606C55.0625 36.1606 48.4445 29.5514 48.4445 21.3986C48.4445 13.2457 55.0625 6.63655 63.2262 6.63655C71.39 6.63655 78.008 13.2457 78.008 21.3986Z" fill="#2685BB"/>
<path d="M14.7818 66.8014L17.9394 46.9533H25.7713C27.5255 46.9533 28.9082 47.3661 29.9194 48.1919C30.9307 48.9969 31.4363 50.1633 31.4363 51.6908C31.4363 52.5991 31.2712 53.4042 30.941 54.1061C30.6108 54.8079 30.1568 55.3962 29.5789 55.871C29.0011 56.3252 28.32 56.6554 27.5358 56.8619C28.4645 57.1302 29.1868 57.6257 29.7027 58.3482C30.2393 59.05 30.5076 59.8964 30.5076 60.8872C30.5076 62.6625 29.8782 64.0972 28.6193 65.1913C27.3604 66.2647 25.5856 66.8014 23.2948 66.8014H14.7818ZM18.6204 63.8288H23.2329C24.4711 63.8288 25.4205 63.5605 26.0809 63.0238C26.7413 62.4664 27.0715 61.682 27.0715 60.6705C27.0715 59.8241 26.8032 59.2048 26.2666 58.8126C25.7507 58.3998 25.018 58.1933 24.0687 58.1933H19.5491L18.6204 63.8288ZM19.9206 55.6233H24.0378C25.1728 55.6233 26.0809 55.3549 26.7619 54.8182C27.4429 54.2815 27.7835 53.5074 27.7835 52.4959C27.7835 51.6083 27.5255 50.958 27.0096 50.5451C26.4936 50.1323 25.761 49.9259 24.8117 49.9259H20.8183L19.9206 55.6233Z" fill="white"/>
<path d="M78.1224 66.8014L81.2799 46.9533H84.778L82.1467 63.6121H91.4335L90.9073 66.8014H78.1224Z" fill="white"/>
<path d="M92.4384 66.8014L95.596 46.9533H109L108.474 50.1426H98.511L97.701 55.2827H106.709L106.245 58.3172H97.2366L96.3968 63.6121H106.338L105.842 66.8014H92.4384Z" fill="white"/>
<path d="M18.1978 43.5429L21.325 23.7544H24.4831L29.499 34.4526L38.1994 23.7544H41.4505L38.2923 43.5429H34.8245L36.9609 30.1548L28.7869 40.1109L23.9258 29.691L21.6965 43.5429H18.1978Z" fill="white"/>
<path d="M41.7388 43.5429L44.8969 23.7235H58.3036L57.7773 26.9082H47.8126L47.0024 32.0409H56.0124L55.548 35.071H46.5379L45.6979 40.3582H55.6409L55.1455 43.5429H41.7388Z" fill="white"/>
<path d="M67.3695 43.914C65.3879 43.914 63.6334 43.5017 62.1059 42.6772C60.5991 41.8527 59.4122 40.688 58.5453 39.1833C57.6783 37.6785 57.2449 35.9264 57.2449 33.927C57.2449 32.3191 57.5235 30.8659 58.0808 29.5673C58.6382 28.2687 59.4122 27.1556 60.403 26.228C61.3938 25.2798 62.5394 24.5583 63.8398 24.0636C65.1402 23.5689 66.5335 23.3215 68.0197 23.3215C69.5678 23.3215 70.9611 23.5689 72.1996 24.0636C73.4381 24.5377 74.4908 25.2076 75.3578 26.0734C76.2247 26.9391 76.8543 27.9595 77.2465 29.1344L74.0264 30.2785C73.5723 29.1241 72.7982 28.2171 71.7042 27.5575C70.6309 26.8773 69.3614 26.5372 67.8959 26.5372C66.8638 26.5372 65.9246 26.7227 65.0783 27.0937C64.232 27.4442 63.4992 27.9492 62.88 28.6088C62.2607 29.2478 61.7757 30.0208 61.4248 30.9278C61.0945 31.8347 60.9294 32.8448 60.9294 33.9579C60.9294 35.3596 61.1977 36.5654 61.7344 37.5755C62.2917 38.5855 63.0554 39.3585 64.0256 39.8944C65.0164 40.4304 66.162 40.6983 67.4624 40.6983C68.6802 40.6983 69.733 40.4716 70.6206 40.0181C71.5288 39.5646 72.2409 38.9359 72.757 38.132C73.2936 37.3075 73.572 36.7097 73.6752 35.6585H67.3386L67.803 32.752H77.8038L77.4013 35.2565C77.1536 36.9055 76.6169 38.3897 75.7912 39.7089C74.9656 41.0075 73.851 42.0382 72.4473 42.8009C71.0643 43.5429 69.3717 43.914 67.3695 43.914Z" fill="white"/>
<path d="M3.46868 20.2214H0L3.15897 0.401955H6.62765L3.46868 20.2214Z" fill="white"/>
<path d="M7.43917 3.58667L7.96567 0.401955H23.265L22.7075 3.58667H16.8851L14.2217 20.2214H10.753L13.3545 3.58667H7.43917Z" fill="white"/>
<path d="M21.4772 20.2214L24.6052 0.432874H27.7642L32.7814 11.131L41.484 0.432874H44.7359L41.5769 20.2214H38.1083L40.2452 6.83322L32.069 16.7893L27.2067 6.36943L24.9768 20.2214H21.4772Z" fill="white"/>
<path d="M55.4304 20.5924C53.5308 20.5924 51.8172 20.1905 50.2893 19.3866C48.7821 18.5827 47.5742 17.4489 46.6658 15.9854C45.7779 14.5013 45.334 12.7801 45.334 10.8218C45.334 9.21403 45.6128 7.7505 46.1702 6.43127C46.7277 5.11203 47.5019 3.96801 48.493 2.9992C49.5047 2.03039 50.6816 1.28832 52.0236 0.77299C53.3657 0.257663 54.8213 0 56.3904 0C58.29 0 59.9933 0.401955 61.5005 1.20586C63.0284 2.00977 64.2363 3.1538 65.1241 4.63794C66.0119 6.10146 66.4558 7.82265 66.4558 9.8015C66.4558 11.3887 66.1771 12.8522 65.6196 14.1921C65.0828 15.5113 64.3085 16.6553 63.2968 17.6242C62.3058 18.5724 61.1392 19.3041 59.7972 19.8194C58.4551 20.3348 56.9995 20.5924 55.4304 20.5924ZM55.4613 17.3768C56.535 17.3768 57.5157 17.2016 58.4035 16.8512C59.2913 16.4801 60.0553 15.9648 60.6953 15.3052C61.356 14.625 61.8619 13.8314 62.2129 12.9244C62.5639 11.9968 62.7394 10.9764 62.7394 9.86334C62.7394 8.52349 62.4606 7.35886 61.9032 6.36943C61.3663 5.38 60.6024 4.61732 59.6114 4.08138C58.641 3.52483 57.526 3.24655 56.2666 3.24655C55.2136 3.24655 54.2432 3.43207 53.3553 3.80311C52.4882 4.15353 51.7242 4.65855 51.0635 5.31817C50.4235 5.97778 49.928 6.77139 49.577 7.69897C49.226 8.60595 49.0505 9.61598 49.0505 10.7291C49.0505 12.0483 49.3189 13.213 49.8557 14.223C50.4132 15.233 51.1771 16.0163 52.1475 16.5729C53.1386 17.1088 54.2432 17.3768 55.4613 17.3768Z" fill="white"/>
<path fill-rule="evenodd" clip-rule="evenodd" d="M87.2574 23.7235L75.8943 43.5429H79.8575L81.9959 39.7398H91.5689L92.521 43.5429H96.1436L91.0039 23.7235H87.2574ZM90.8104 36.7097L88.6198 27.9595L83.6997 36.7097H90.8104Z" fill="white"/>
<path fill-rule="evenodd" clip-rule="evenodd" d="M40.8061 46.9533L29.4452 66.8014H33.4076L35.5456 62.9928H45.1168L46.0687 66.8014H49.6905L44.5518 46.9533H40.8061ZM44.3583 59.9583L42.1682 51.1954L37.249 59.9583H44.3583Z" fill="white"/>
<path d="M49.291 50.1426L49.8173 46.9533H64.617H79.9094L79.3522 50.1426H73.5324L70.8702 66.8014H67.4031L70.0034 50.1426H64.0908H58.7327L56.0704 66.8014H52.6033L55.2037 50.1426H49.291Z" fill="white"/>
</svg>
