<svg width="1349" height="71" viewBox="0 0 1349 71" fill="none" xmlns="http://www.w3.org/2000/svg">
<path d="M28.06 1.19604V69.644H1.51694e-05V1.19604H28.06ZM67.6056 69.644V21.896H39.6376V1.19604H123.542V21.896H95.5736V69.644H67.6056ZM135.125 69.644V1.19604H174.317L190.969 36.248L207.805 1.19604H245.709V69.644H218.109V28.06L198.145 69.644H182.045L162.173 28.06V69.644H135.125ZM303.053 4.02927e-05H307.285C346.385 4.02927e-05 353.009 20.148 353.009 33.856V36.616C353.009 50.048 346.477 70.84 307.285 70.84H303.053C264.137 70.84 257.421 50.048 257.421 36.616V33.856C257.421 20.148 264.229 4.02927e-05 303.053 4.02927e-05ZM323.569 35.512V34.592C323.569 29.164 321.361 20.24 305.169 20.24C288.701 20.24 286.769 29.164 286.769 34.592V35.512C286.769 41.124 289.161 50.232 305.261 50.232C321.361 50.232 323.569 41.124 323.569 35.512ZM390.273 47.656V69.644H362.029V47.656H390.273ZM403.219 69.644V1.19604H442.411L459.063 36.248L475.899 1.19604H513.803V69.644H486.203V28.06L466.239 69.644H450.139L430.267 28.06V69.644H403.219ZM528.551 1.19604H600.127V18.676H556.703V26.036H598.747V43.976H556.703V51.98H600.771V69.644H528.551V1.19604ZM653.557 70.656H651.901C619.885 70.656 610.777 51.612 610.777 35.788V34.316C610.777 18.952 619.609 4.02927e-05 656.961 4.02927e-05H660.181C699.189 4.02927e-05 705.169 16.652 705.169 25.668V26.22H675.637C674.901 24.472 672.509 19.964 658.617 19.964C643.345 19.964 639.849 27.416 639.849 34.776V35.604C639.849 42.688 643.437 50.876 658.249 50.876C672.325 50.876 675.821 46.184 676.281 43.976H656.041V30.82H705.997V69.644H687.137C686.585 67.344 684.745 63.48 683.273 61.272C680.513 64.032 671.957 70.656 653.557 70.656ZM770.614 42.228L761.23 21.436L751.754 42.228H770.614ZM783.126 69.644L778.434 59.432H743.934L739.242 69.644H711.182L743.658 1.19604H779.998L812.842 69.644H783.126ZM819.016 69.644V1.19604H880.012C899.608 1.19604 906.232 7.91204 906.232 17.112V17.572C906.232 27.232 897.676 30.912 892.524 31.648C899.516 32.66 910.188 36.34 910.188 48.484V49.312C910.188 61.456 902.46 69.644 880.012 69.644H819.016ZM870.72 18.216H847.076V26.772H870.72C875.78 26.772 877.344 25.208 877.344 22.632V22.448C877.344 19.596 875.78 18.216 870.72 18.216ZM872.836 42.412H847.076V51.888H872.836C879.184 51.888 880.104 49.22 880.104 47.104V46.828C880.104 44.62 879.184 42.412 872.836 42.412ZM971.415 42.228L962.031 21.436L952.555 42.228H971.415ZM983.927 69.644L979.235 59.432H944.735L940.043 69.644H911.983L944.459 1.19604H980.799L1013.64 69.644H983.927ZM1036.39 69.644V21.896H1008.42V1.19604H1092.33V21.896H1064.36V69.644H1036.39ZM1128.75 69.644V21.896H1100.78V1.19604H1184.69V21.896H1156.72V69.644H1128.75ZM1196.27 1.19604H1224.33V48.3H1264.81V69.644H1196.27V1.19604ZM1276.68 1.19604H1348.26V18.676H1304.83V26.036H1346.88V43.976H1304.83V51.98H1348.9V69.644H1276.68V1.19604Z" fill="white"/>
</svg>
